<?xml version="1.0" encoding="UTF-8" standalone="no"?><!-- Generator: Gravit.io --><svg xmlns="http://www.w3.org/2000/svg" xmlns:xlink="http://www.w3.org/1999/xlink" style="isolation:isolate" viewBox="0 0 500 400" width="500pt" height="400pt"><defs><clipPath id="_clipPath_mHnC4qAAQT9DZaEAoABKoRPFJvDI63zW"><rect width="500" height="400"/></clipPath></defs><g clip-path="url(#_clipPath_mHnC4qAAQT9DZaEAoABKoRPFJvDI63zW)"><rect width="500" height="400" style="fill:rgb(0,0,0)" fill-opacity="0"/><g><g><g><path d=" M 117.188 315.977 C 134.375 321.394 152.344 325.005 171.875 325.005 C 267.188 325.005 343.75 251.879 343.75 162.503 C 343.75 73.126 267.188 0 171.875 0 C 76.562 0 0 73.126 0 162.503 C 0 213.059 24.219 259.102 62.5 288.894 C 62.5 288.894 62.5 312.366 46.094 335.839 C 41.406 342.158 46.094 352.089 53.125 350.284 C 95.313 343.061 117.188 315.977 117.188 315.977 Z " fill="rgb(255,255,255)"/></g></g><g><g><g><path d=" M 500 212.156 C 500 125.488 447.656 55.07 339.063 49.654 C 361.719 81.251 375 120.071 375 162.503 C 375 249.171 317.969 323.2 238.281 350.284 C 264.063 365.631 295.313 374.659 328.125 374.659 C 347.656 374.659 365.625 371.048 382.813 365.631 C 382.813 365.631 404.688 392.715 446.094 399.937 C 453.125 400.84 457.813 391.812 453.125 385.493 C 437.5 362.02 437.5 338.547 437.5 338.547 C 475.781 308.755 500 262.713 500 212.156 Z " fill="rgb(255,255,255)"/></g></g></g></g></g></svg>