<?xml version="1.0" encoding="UTF-8" standalone="no"?><!-- Generator: Gravit.io --><svg xmlns="http://www.w3.org/2000/svg" xmlns:xlink="http://www.w3.org/1999/xlink" style="isolation:isolate" viewBox="0 0 500 500" width="500pt" height="500pt"><defs><clipPath id="_clipPath_a9CGQOolY7qcdLY6OnTbeZ3gurREYRYy"><rect width="500" height="500"/></clipPath></defs><g clip-path="url(#_clipPath_a9CGQOolY7qcdLY6OnTbeZ3gurREYRYy)"><rect width="500" height="500" style="fill:rgb(0,0,0)" fill-opacity="0"/><clipPath id="_clipPath_wsnSyXoTUwYb3lcBWOWCXTEWOOw5EMI0"><rect x="0" y="0" width="500" height="500" transform="matrix(1,0,0,1,0,0)" fill="rgb(255,255,255)"/></clipPath><g clip-path="url(#_clipPath_wsnSyXoTUwYb3lcBWOWCXTEWOOw5EMI0)"><g><g><path d=" M 0.001 326 Q 0.46 326 81.837 30 L 180.639 99 L 250.499 0 L 320.36 99 L 419.162 30 L 500 325 L 250 500 Q -0.458 326 0.001 326 Z " fill="rgb(115,212,247)"/><path d=" M 74 250 L 180 99 L 250 148 L 320 99 Q 425.781 250.476 426 250 Q 426.219 249.524 250 500 L 74 250 Z " fill="rgb(178,231,250)"/><path d=" M 169 204 L 250 148 L 331 204 L 250 500 L 169 204 Z " fill="rgb(212,242,252)"/></g></g></g></g></svg>